<svg xmlns="http://www.w3.org/2000/svg" width="872.8200073242188" height="116.12000274658203"><rect id="backgroundrect" width="100%" height="100%" x="0" y="0" fill="none" stroke="none"/><g class="currentLayer" style=""><title>Layer 1</title><g id="Layer_2" data-name="Layer 2" class="selected" fill="none"><g id="Layer_1-2" data-name="Layer 1" fill="none" fill-opacity="1"><path d="M102.45,102.84c-8,3-23.8-1.69-29.66-8.68-1-14.13-1.41-36.1,3.51-55.44,8.48-10.78,13-19.8,8.3-25.87A4.28,4.28,0,0,0,81,11.22a4.23,4.23,0,0,0-3.38,2,80.46,80.46,0,0,0-9.07,21.53c-4.47,5.53-10,11.6-15.34,17.51q-2,2.14-3.77,4.17c1.81-17.26,1.19-35-3.76-44.25a4.25,4.25,0,0,0-5.66-1.78c-23.68,12-28.28,41-32.34,66.59C5.76,89.29,3.92,100.92.29,110.33a4.25,4.25,0,0,0,3.84,5.78h.32a4.8,4.8,0,0,0,1.33-.19,4.3,4.3,0,0,0,1.06-.37l.17,0a4.26,4.26,0,0,0,3.56-4.66,4.17,4.17,0,0,0-.76-2c2.92-9.2,4.57-19.61,6.3-30.54,3.64-23,7.4-46.66,23.76-57.95,3.25,11.17,2.23,31.28-.75,47.92C31,78.2,27,85.16,28.71,90.68c.64,2.07,2.36,4.77,6.93,5.86a4.26,4.26,0,0,0,4.8-2.27C43,89,45.39,81,47.16,71.92c3.66-4.36,7.93-9.06,12.38-14,1.93-2.14,3.84-4.24,5.69-6.3a217.84,217.84,0,0,0-.82,44.4,4.22,4.22,0,0,0,.76,2.11c7.5,10.71,28.22,17.19,40.29,12.61a4.25,4.25,0,1,0-3-8ZM6.86,115.53h0Zm0,0Z" id="svg_1" fill="none" fill-opacity="1"/><path d="M132.86,92.58c-3.51-2.89-6.27-2.06-7.65-1.26a6.66,6.66,0,0,0-2.81,7.28,4.87,4.87,0,0,0,4.47,3.93h.26a4.75,4.75,0,0,0,3.65-1.72l.17,0a4.25,4.25,0,0,0,1.91-8.28Z" id="svg_2" fill="none" fill-opacity="1"/><path d="M570.94,24.44h-.17a15.1,15.1,0,0,0-3.84.88l-.62.2c-11.45,3.33-18.45,8.41-21.4,15.55-4.63,11.2,2.23,23.63,8.29,34.59,3,5.49,7.19,13,6.08,15.27-.24.48-1.28,1.11-3.49,1.51-13-.86-29.09-9.56-37.66-20.39-3.25-4.11-6.82-10.35-6.18-17.45a4.26,4.26,0,0,0-1.89-6.46c.05-6.77-2-12.31-6.22-15.89a4.27,4.27,0,0,0-1.73-.89,4.34,4.34,0,0,0-1.72-.22c-.6,0-1.21,0-1.81,0a29.27,29.27,0,0,0-4.21.14A7.32,7.32,0,0,0,492,32a23.19,23.19,0,0,0-7.14,5c-.88.81-1.7,1.57-2.5,2.17a4.25,4.25,0,0,0-.95,1c-11.9,17.3-18.52,33.46-19.7,48.06-.1.15-.19.29-.26.42a4.61,4.61,0,0,0-.78.85,5,5,0,0,0-1,.88l-.23.15c-1.87,1.34-5.1,1.55-7.86.5a6.66,6.66,0,0,1-3.78-3.15c2.14-8.15,1.57-16.36,1-24.31a98.1,98.1,0,0,1-.3-14.86,14.1,14.1,0,0,0,1.88-10.75,4.25,4.25,0,0,0-8.15-.49,39.64,39.64,0,0,0-2,8.24,46.27,46.27,0,0,1-5.75,5.64,61.6,61.6,0,0,0-4.63,4.3c-3.16,2.85-6.29,6-9.33,9-5.79,5.78-11.73,11.73-18.17,16.06-1.43-9.58-1.21-24.73,1-34.25a33.74,33.74,0,0,0,6-8,4.24,4.24,0,0,0,.9-2.62v-.37a4.25,4.25,0,0,0-4.25-4.25H405l-.43,0h-.15a6.69,6.69,0,0,0-2.29.51,4.16,4.16,0,0,0-1.27.85c-2.12,2.07-3.74,5.31-4.94,9.24-6.46,5.75-15.65,9.67-24,13.25l-2.42,1c-7.64.73-13.29-1.42-16.83-6.37a49.84,49.84,0,0,1,3.29-10.52,4.21,4.21,0,0,0,.32-2.24c-.61-5-2.09-16.59-9.18-15.78-6.82.79-7.39,12.44-6.74,18.49a33.47,33.47,0,0,0,3.38,11.68c-.78,5.1-1.06,10.18-1.35,15.41-.1,1.76-.2,3.54-.32,5.36a4.69,4.69,0,0,0,.1,1.24c.32,1.38-.24,3.32-1.07,5.4a25.27,25.27,0,0,0-6.86-5.25,4.24,4.24,0,0,0-1.75-.38h-.14l-.32,0c-3,.22-5.33.3-7.55.26a4.28,4.28,0,0,0-1.23.15c-6.45,1.8-11.73,5.72-16.84,9.5-6.68,4.94-12.47,9.24-19.81,8.4a11.56,11.56,0,0,1-5.22-5.64c17.72-10.4,24.68-25.38,24.72-35.12,0-6-2.62-10.47-6.92-11.57s-11.1.72-19.12,15.59a3.18,3.18,0,0,0-.16.32l-.89,2c-2.89,6.6-6.85,15.61-6.9,24a76,76,0,0,1-13.19,4.7,60.46,60.46,0,0,1-8.15-3.61c2.73-12,.9-24.63-5.14-32.41a4.16,4.16,0,0,0-.58-.61,16.89,16.89,0,0,0-9.4-4.15c17.23-12.47,26-24.4,24.63-33.76-.68-4.78-4-8.51-9.06-10.23-10-3.38-28.59.73-46.3,17.55a4.25,4.25,0,0,0-2.36,3.8v.28a4.94,4.94,0,0,0,9.5.89c14-12.7,29-17,36.43-14.46,3,1,3.29,2.79,3.37,3.37.64,4.51-4.88,14.16-22.49,26.59a4.79,4.79,0,0,0-.74.21,4.21,4.21,0,0,0-1.07.51,5,5,0,0,0-.74.35C213.33,45.1,206.06,65.85,207,82.59c.83,14.31,7.39,24.07,17.53,26.1a4,4,0,0,0,.84.08h.39c9.5-.88,17.61-7.54,22.26-18.26l0-.06a64.59,64.59,0,0,0,9.33,3.89,4.36,4.36,0,0,0,2.32.09,85.88,85.88,0,0,0,14-4.68c1.63,3.72,4.61,7.05,9.51,9.63a4.17,4.17,0,0,0,1.33.44c11.18,1.75,19.52-4.42,26.88-9.87,4.51-3.34,8.79-6.51,13.5-8,2,0,4.1,0,6.59-.21a25.23,25.23,0,0,1,5.93,5.91c-1.32,4.43-1.45,9.36,3.29,13.18a4.26,4.26,0,0,0,5.55-.18,9,9,0,0,0,2.6-8.37,18.59,18.59,0,0,0-2-5.6c.18-.42.38-.86.59-1.33,1.81-4,3.85-8.59,3.07-13.2.1-1.65.19-3.28.28-4.89.13-2.39.26-4.71.43-7,4.64,3.29,10.86,5.08,19,4.31h.18a4.26,4.26,0,0,0,1.69-.35l3.1-1.33A142.11,142.11,0,0,0,393.62,54c-1.41,13.21-.2,28.23,1.88,34.67a4.25,4.25,0,0,0,6,2.47c9.52-4.89,17.45-12.81,25.12-20.48,3.13-3.14,6.1-6.1,9.14-8.84a3.44,3.44,0,0,0,.27-.27c1.07-1.15,2.46-2.37,3.94-3.66.1,2.09.24,4.18.39,6.25.55,8,1.07,15.49-1.05,22.59a4.14,4.14,0,0,0-.07,2.18c1,4.54,4.46,8.21,9.36,10.06a17.56,17.56,0,0,0,15.05-1,5.28,5.28,0,0,0,2.19-1.63,4.56,4.56,0,0,0,.38-.31,4.62,4.62,0,0,0,1-1,5.63,5.63,0,0,0,1.26-1.5l.25-.25a4.09,4.09,0,0,0,.39-.44,3,3,0,0,0,.36-.51,14.63,14.63,0,0,0,2.43.87,4,4,0,0,0,1.09.14h1.59a15.09,15.09,0,0,0,3.91-.34c11.08-1.36,21.31-13.34,26.93-25.9a40,40,0,0,0,6,10.3c10.2,12.89,28.84,22.83,44.33,23.64H556a4.74,4.74,0,0,0,.65,0c5.16-.81,8.61-2.91,10.25-6.25,3.05-6.24-1.27-14.06-6.28-23.12-5.13-9.29-10.94-19.81-7.87-27.23,1.87-4.53,7.22-8.11,16-10.65.28-.08.57-.18.87-.28a11.28,11.28,0,0,1,1.61-.45c1.12,0,2.55.12,3.19.8,1.36,1.46.94,6.19.64,9.64-.15,1.7-.3,3.46-.32,5.11v.32A4.25,4.25,0,0,0,579,53h.13a4.27,4.27,0,0,0,4.25-4,4.92,4.92,0,0,0-.1-1.36c0-1.09.15-2.31.26-3.58.5-5.61,1.06-12-2.89-16.19C578.38,25.54,575.13,24.36,570.94,24.44ZM240.26,87.12c-1.94,4.46-6.38,12-14.61,13.1-8.29-2.16-9.84-13.34-10.12-18.13,0-.31,0-.63-.05-1a4.31,4.31,0,0,0,2.57.48c10.29-1.35,16,1.19,22.52,4.74ZM242.9,78c-5.46-2.87-11.23-5.21-19.45-5.21-1.36,0-2.78.06-4.28.2-3-4.3.26-10.17,2.92-13.2,3.76-4.28,11.34-8.87,17.07-4.33C243,60.65,244.29,69.43,242.9,78Zm43.88-17.41.83-1.89c5.14-9.49,8.59-11,9.36-11.18.46.71,1.11,3.25,0,7.57-1.71,6.71-6.71,14.48-15.83,20.91C282.15,71.46,284.26,66.29,286.78,60.54Zm213-2.56c-4.28,13.59-14.59,25.73-22.53,26.52a3.93,3.93,0,0,0-.83.16,7.55,7.55,0,0,1-1.77.09h-1.05a6,6,0,0,1-1.66-.87,3.88,3.88,0,0,0-1-1.14c2.18-11.36,7.88-23.85,17-37.24.91-.73,1.75-1.51,2.57-2.26,1.6-1.47,3.11-2.86,4.58-3.38l.42-.17a23.36,23.36,0,0,1,2.82,0h.8C502.12,43.2,502.37,49.9,499.82,58Z" id="svg_3" fill="none" fill-opacity="1"/><path d="M868.86,91.19a6.59,6.59,0,0,0-3.6.93l-.14.08A4.23,4.23,0,0,0,863,94.34,35.78,35.78,0,0,1,850.17,101c-10.88,1.61-17.94.77-21-2.48-3.56-3.82-2.67-12.29-.67-22.17a30.13,30.13,0,0,0,2.12-10,4.25,4.25,0,0,0-8.39-1.15c-.67,3-1.33,5.87-1.91,8.68-3.57,7.61-12.13,10.29-24.33,13.5-6.88,1.82-14,3.69-19.8,7.28-4.82-.13-6-2.47-6.4-4.79-.57-2.93-.07-6.58,1.1-10.34,7.27-5.21,17.55-14.39,17.84-24.75a4.26,4.26,0,0,0-5.68-4.13C775.64,53.33,768,63.5,764,74c-14.18,9.5-31.94,14.88-39.74,12a5.27,5.27,0,0,0-.68-.19c-3.14-1.57-3.71-3.65-3.84-5.31-.47-5.93,4.64-14.67,10.64-22,7-2.32,12.79-6.61,14.82-14.93a4.25,4.25,0,0,0-4.13-5.25h-.26a4.25,4.25,0,0,0-2.34.7,71.22,71.22,0,0,0-12.88,12c-4.63,1.16-10.43,1.62-17,2l-1.14.07a27.36,27.36,0,0,0-.39-2.76,4.5,4.5,0,0,0-.33-1c-7.21-15.13-16.78-14.8-20.3-14.06a4.25,4.25,0,0,0-5.95.18c-1.24,1.3-3.84,1.79-6.59,2.32-4,.75-8.85,1.69-12.42,5.58-9.06,6-16.19,16.6-18.69,27.94A37.56,37.56,0,0,0,642.36,86c-19.7,4.81-36.89,2.56-43.47-6.2-6.1-8.11-3-21.83,8.77-38.63,4.21-6.05,20-9.7,26.75-6.19,1,.49,2.76,1.42,2.35,4.69a6.41,6.41,0,0,0-1.09,4v.2a4.25,4.25,0,0,0,4.25,4.21h.13a4.26,4.26,0,0,0,4-2.81c4.1-11.35-2.65-16.3-5.74-17.89-10.59-5.48-31-.66-37.64,8.87-18,25.7-14.6,40.62-8.59,48.61S609.26,97,623.15,97a89.9,89.9,0,0,0,21.85-3,28.11,28.11,0,0,0,1.68,3,3.74,3.74,0,0,0,.46.59c8.77,9.4,19.89,11.36,31.33,5.54,14.29-7.29,26.22-25.57,28.63-41.61l1.93-.1c3-.17,6.06-.34,9.15-.65-4.36,6.8-7.41,14.09-6.92,20.37.46,5.72,3.66,10.08,9.27,12.61l.31.12a4.38,4.38,0,0,0,1.17.32c10.06,3.23,25.91-1.43,39.2-8.65a22.27,22.27,0,0,0,.27,5.9c1.5,7.76,7.41,12,16.19,11.67a4.38,4.38,0,0,0,2.22-.73c4.8-3.25,11.36-5,18.31-6.82,6.64-1.75,14.06-3.7,20.13-7.52-.28,6.58.85,12.13,4.65,16.22s9.47,6,17.69,6a74.5,74.5,0,0,0,11.05-.93,3.45,3.45,0,0,0,.54-.11c7-2,13.4-5.55,17.68-9.75l.26-.15a4.25,4.25,0,0,0-1.34-8.16ZM674.61,95.6c-7.87,4-14.93,2.83-21-3.48-.1-.17-.19-.34-.29-.5l.76-.25a4,4,0,0,0,1.09-.56,4.74,4.74,0,0,0,.72-.61,4.49,4.49,0,0,0,.88-.68h0c.15-.09.35-.21.56-.36a4.51,4.51,0,0,0,1.13-.59l.25-.18.26-.21a5.33,5.33,0,0,0,1.38-2c.27-.33.63-.71,1-1.08a19.59,19.59,0,0,0,2.43-3,4.25,4.25,0,0,0-7.25-4.45,13.72,13.72,0,0,1-1.4,1.66A21,21,0,0,0,653,81.74a3.89,3.89,0,0,0-.5.41l-.12.07a7.94,7.94,0,0,0-1.11.76,5.55,5.55,0,0,0-.76.55,29.85,29.85,0,0,1,.5-10.48c2.05-9.28,8.12-18.28,15.46-22.92a4.47,4.47,0,0,0,1-.88c1.65-2,4.56-2.56,7.93-3.2l1.08-.21a12,12,0,0,0,0,2.16c.19,2.87,2.18,12.42,19.7,14.56a4.3,4.3,0,0,0,1.29,0l.88-.15C695.68,75.19,685.75,89.92,674.61,95.6ZM696.6,54c-8.32-1.15-11.48-4.25-11.64-6.61a4,4,0,0,1,3-3.88,4.31,4.31,0,0,1,1.1-.13c2.71,0,6.37,2.34,9.67,9,.07.42.12.85.16,1.29Q697.74,53.85,696.6,54Z" id="svg_4" fill="none" fill-opacity="1"/><path d="M838.88,23a8.8,8.8,0,0,0,3.5.76,5.62,5.62,0,0,0,4.46-1.92,4.91,4.91,0,0,0,1.06-4,4.28,4.28,0,0,0-4.25-4.29l.3,0a3.48,3.48,0,0,0-.55,0h-.07a4.68,4.68,0,0,0-1.22.22l-1.7-.33a3.71,3.71,0,0,0-.81-.08h-.26A4.25,4.25,0,0,0,835.12,17C834.85,19,835.69,21.59,838.88,23Zm5.74-9.29a3,3,0,0,0-.59-.13A2.74,2.74,0,0,1,844.62,13.7Z" id="svg_5" fill="none" fill-opacity="1"/><path d="M843.4,13.52h0Z" id="svg_6" fill="none" fill-opacity="1"/></g></g><polyline fill="none" stroke="#000000" stroke-width="3" stroke-dashoffset="" fill-rule="nonzero" marker-start="" marker-mid="" marker-end="" id="svg_7" points="29.091155477988192,25.183285769722147 29.776086966941573,25.183285769722147 30.461018455894955,25.868217258675514 31.145949944848336,27.923011725535673 32.5158129227551,29.292874703442433 33.885675900661866,33.402463637162725 35.94047036752201,37.512052570883014 37.310333345428774,43.676435971463434 39.36512781228892,49.84081937204388 39.36512781228892,51.210682349950645 40.0500593012423,53.265476816810775 40.73499079019568,54.63533979471754 41.41992227914906,55.32027128367093 42.104853768102444,58.05999723948444 42.104853768102444,58.74492872843783 43.47471674600921,60.799723195297965 44.84457972391597,65.59424361797167 45.529511212869345,66.9641065958784 46.214442701822726,68.3339695737852 47.58430567972949,69.70383255169193 47.58430567972949,70.38876404064533 47.58430567972949,71.07369552959872 47.58430567972949,71.75862701855212 47.58430567972949,71.75862701855212 48.26923716868287,72.44355850750546 48.26923716868287,73.12848999645885 49.639100146589634,74.49835297436564 50.324031635543015,75.18328446331898 51.00896312449641,77.23807893017917 53.063757591356556,80.66273637494604 54.43362056926332,82.71753084180622 54.43362056926332,82.71753084180622 55.1185520582167,82.71753084180622 55.803483547170075,82.03259935285283 58.5432095029836,79.9778048859927 61.28293545879713,75.86821595227238 65.39252439251742,70.38876404064533 70.18704481519109,62.854517662158145 74.29663374891138,55.32027128367093 76.35142821577152,51.210682349950645 77.72129119367828,47.101093416230356 79.09115417158505,45.0462989493702 80.46101714949181,43.676435971463434 81.83088012739857,41.6216415046033 83.20074310530534,40.25177852669654 83.20074310530534,38.88191554878978 83.20074310530534,38.88191554878978 84.5706060832121,38.19698405983638 85.94046906111886,36.14218959297625 85.94046906111886,34.77232661506949 86.62540055007224,33.402463637162725 87.995263527979,32.03260065925596 88.68019501693239,30.662737681349196 88.68019501693239,29.9778061923958 88.68019501693239,28.607943214489037 89.36512650588577,27.923011725535673 89.36512650588577,27.923011725535673 " style="color: rgb(0, 0, 0);"/><polyline fill="none" stroke="#000000" stroke-width="3" stroke-dashoffset="" fill-rule="nonzero" marker-start="" marker-mid="" marker-end="" id="svg_8" points="105.11855075181356,53.265476816810775 105.11855075181356,54.63533979471754 105.11855075181356,56.0052027726243 105.11855075181356,59.429860217391216 105.11855075181356,60.799723195297965 105.11855075181356,62.854517662158145 105.11855075181356,65.59424361797167 105.11855075181356,66.9641065958784 105.11855075181356,69.01890106273859 105.11855075181356,71.07369552959872 105.11855075181356,71.75862701855212 105.11855075181356,73.12848999645885 104.43361926286016,74.49835297436564 103.7486877739068,77.23807893017917 103.7486877739068,79.2928733970393 103.7486877739068,79.9778048859927 103.7486877739068,80.66273637494604 103.7486877739068,82.03259935285283 103.0637562849534,82.71753084180622 103.0637562849534,83.40246233075956 102.37882479600003,85.45725679761975 101.00896181809327,87.51205126447988 101.00896181809327,88.19698275343329 " style="color: rgb(0, 0, 0);"/><polyline fill="none" stroke="#000000" stroke-width="3" stroke-dashoffset="" fill-rule="nonzero" marker-start="" marker-mid="" marker-end="" id="svg_9" points="100.32403032913987,31.34766917030257 101.00896181809327,32.03260065925596 101.69389330704664,32.71753214820933 102.37882479600003,32.71753214820933 102.37882479600003,32.71753214820933 102.37882479600003,33.402463637162725 103.0637562849534,33.402463637162725 102.37882479600003,33.402463637162725 102.37882479600003,32.71753214820933 101.69389330704664,32.71753214820933 101.00896181809327,31.34766917030257 101.00896181809327,30.662737681349196 101.00896181809327,30.662737681349196 " style="color: rgb(0, 0, 0);"/><polyline fill="none" stroke="#000000" stroke-width="3" stroke-dashoffset="" fill-rule="nonzero" marker-start="" marker-mid="" marker-end="" id="svg_10" points="125.66649542041499,26.55314874762891 125.66649542041499,27.923011725535673 126.35142690936837,30.662737681349196 126.35142690936837,33.402463637162725 127.03635839832178,36.82712108192962 126.35142690936837,41.6216415046033 124.98156393146161,47.78602490518372 124.29663244250823,52.58054532785741 124.29663244250823,56.0052027726243 124.29663244250823,60.799723195297965 124.29663244250823,64.22438064006488 124.29663244250823,69.01890106273859 124.29663244250823,73.81342148541225 124.29663244250823,77.23807893017917 124.29663244250823,79.9778048859927 124.29663244250823,82.03259935285283 124.29663244250823,82.71753084180622 124.29663244250823,83.40246233075956 124.29663244250823,84.08739381971296 124.29663244250823,84.77232530866635 124.29663244250823,84.77232530866635 124.98156393146161,85.45725679761975 124.98156393146161,85.45725679761975 124.98156393146161,86.14218828657309 124.98156393146161,85.45725679761975 124.98156393146161,80.66273637494604 124.98156393146161,79.2928733970393 " style="color: rgb(0, 0, 0);"/><polyline fill="none" stroke="#000000" stroke-width="3" stroke-dashoffset="" fill-rule="nonzero" marker-start="" marker-mid="" marker-end="" id="svg_11" points="124.29663244250823,53.265476816810775 124.29663244250823,52.58054532785741 124.29663244250823,51.89561383890401 128.40622137622853,50.52575086099725 131.14594733204206,49.84081937204388 135.25553626576234,49.84081937204388 137.31033073262248,49.155887883090486 137.99526222157587,49.155887883090486 140.050056688436,48.47095639413712 146.89937157796984,46.41616192727696 148.95416604482998,45.0462989493702 150.32402902273674,44.36136746041683 " style="color: rgb(0, 0, 0);"/><polyline fill="none" stroke="#000000" stroke-width="3" stroke-dashoffset="" fill-rule="nonzero" marker-start="" marker-mid="" marker-end="" id="svg_12" points="164.70759029075776,58.05999723948444 162.6527958238976,56.0052027726243 162.6527958238976,56.0052027726243 159.91306986808408,58.05999723948444 155.8034809343638,60.11479170634462 151.6938920006435,62.169586173204756 148.95416604482998,64.22438064006488 146.89937157796984,66.27917510692507 146.21444008901645,69.01890106273859 146.21444008901645,71.07369552959872 146.21444008901645,73.81342148541225 147.5843030669232,76.55314744122578 149.63909753378337,79.9778048859927 151.6938920006435,82.71753084180622 154.43361795645703,84.77232530866635 156.4884124233172,84.77232530866635 159.91306986808408,84.08739381971296 162.6527958238976,82.03259935285283 166.07745326866453,80.66273637494604 168.81717922447805,79.2928733970393 170.18704220238482,77.23807893017917 170.87197369133818,75.86821595227238 170.87197369133818,71.75862701855212 168.81717922447805,67.6490380848318 167.4473162465713,64.90931212901828 165.39252177971113,63.53944915111155 164.70759029075776,60.799723195297965 164.02265880180437,60.11479170634462 162.6527958238976,59.429860217391216 161.96786433494424,58.74492872843783 161.28293284599084,58.05999723948444 " style="color: rgb(0, 0, 0);"/><polyline fill="none" stroke="#000000" stroke-width="3" stroke-dashoffset="" fill-rule="nonzero" marker-start="" marker-mid="" marker-end="" id="svg_13" points="181.14594602563892,61.48465468425135 181.14594602563892,62.169586173204756 181.14594602563892,63.53944915111155 179.77608304773216,68.3339695737852 179.09115155877876,74.49835297436564 178.4062200698254,79.9778048859927 177.72128858087203,82.03259935285283 177.72128858087203,83.40246233075956 177.72128858087203,82.03259935285283 179.09115155877876,78.6079419080859 180.46101453668555,77.23807893017917 182.51580900354568,71.75862701855212 187.31032942621934,65.59424361797167 190.05005538203287,63.53944915111155 192.10484984889302,61.48465468425135 192.7897813378464,60.799723195297965 195.52950729365992,59.429860217391216 196.89937027156668,58.05999723948444 198.95416473842684,56.69013426157769 199.6390962273802,56.69013426157769 201.00895920528697,56.69013426157769 201.00895920528697,57.37506575053109 201.69389069424037,57.37506575053109 202.37882218319373,57.37506575053109 203.0637536721471,56.69013426157769 " style="color: rgb(0, 0, 0);"/><polyline fill="none" stroke="#000000" stroke-width="3" stroke-dashoffset="" fill-rule="nonzero" marker-start="" marker-mid="" marker-end="" id="svg_14" points="243.47471152039662,27.238080236582277 244.15964300935002,28.607943214489037 244.15964300935002,32.03260065925596 244.84457449830342,36.82712108192962 245.5295059872568,44.36136746041683 245.5295059872568,52.58054532785741 245.5295059872568,58.74492872843783 247.58430045411694,69.01890106273859 247.58430045411694,74.49835297436564 248.95416343202368,79.2928733970393 249.63909492097707,82.71753084180622 250.32402640993047,84.77232530866635 250.32402640993047,86.14218828657309 250.32402640993047,87.51205126447988 250.32402640993047,89.56684573134001 250.32402640993047,90.93670870924682 250.32402640993047,90.93670870924682 250.32402640993047,90.93670870924682 251.00895789888386,90.93670870924682 251.6938893878372,90.25177722029339 255.80347832155752,86.82711977552648 261.96786172213797,77.92301041913251 270.18703958957855,68.3339695737852 283.2007378796928,49.84081937204388 291.41991574713336,38.88191554878978 296.8993676587604,30.662737681349196 298.26923063666715,23.12849130286199 298.95416212562054,21.073696836001858 " style="color: rgb(0, 0, 0);"/><polyline fill="none" stroke="#000000" stroke-width="3" stroke-dashoffset="" fill-rule="nonzero" marker-start="" marker-mid="" marker-end="" id="svg_15" points="296.8993676587604,56.0052027726243 296.214436169807,56.69013426157769 294.8445731919003,58.05999723948444 291.41991574713336,60.11479170634462 289.36512128027323,62.169586173204756 287.31032681341304,63.53944915111155 285.9404638355063,66.9641065958784 285.9404638355063,69.70383255169193 285.9404638355063,71.75862701855212 285.9404638355063,73.12848999645885 285.9404638355063,75.18328446331898 286.6253953244597,77.23807893017917 287.31032681341304,77.23807893017917 287.99525830236644,77.92301041913251 288.68018979131983,79.2928733970393 290.05005276922657,79.2928733970393 290.05005276922657,79.9778048859927 290.73498425817996,78.6079419080859 291.41991574713336,75.86821595227238 292.7897787250401,74.49835297436564 294.8445731919003,71.75862701855212 297.5842991477138,69.01890106273859 298.26923063666715,69.01890106273859 298.95416212562054,68.3339695737852 298.95416212562054,67.6490380848318 299.63909361457394,66.27917510692507 299.63909361457394,63.53944915111155 298.26923063666715,61.48465468425135 297.5842991477138,60.11479170634462 297.5842991477138,58.05999723948444 297.5842991477138,56.69013426157769 297.5842991477138,56.0052027726243 298.26923063666715,56.69013426157769 299.63909361457394,58.05999723948444 301.69388808143407,64.22438064006488 304.4336140372476,70.38876404064533 306.4884085041077,77.23807893017917 309.22813445992125,82.71753084180622 311.28292892678144,88.19698275343329 314.02265488259496,92.30657168715354 314.7075863715483,92.30657168715354 315.3925178605017,91.62164019820014 316.7623808384085,89.56684573134001 318.8171753052686,86.82711977552648 320.87196977212875,84.77232530866635 322.24183275003554,83.40246233075956 324.2966272168957,82.71753084180622 " style="color: rgb(0, 0, 0);"/><polyline fill="none" stroke="#000000" stroke-width="3" stroke-dashoffset="" fill-rule="nonzero" marker-start="" marker-mid="" marker-end="" id="svg_16" points="318.1322438163152,56.0052027726243 319.502106794222,56.69013426157769 326.3514216837558,59.429860217391216 331.83087359538285,60.799723195297965 335.2555310401498,62.169586173204756 335.9404625291032,62.854517662158145 336.62539401805657,63.53944915111155 335.2555310401498,66.27917510692507 333.20073657328965,71.75862701855212 331.1459421064295,75.18328446331898 330.4610106174761,77.92301041913251 329.7760791285227,79.9778048859927 329.7760791285227,80.66273637494604 329.7760791285227,82.03259935285283 331.1459421064295,82.71753084180622 333.20073657328965,83.40246233075956 335.9404625291032,84.08739381971296 337.9952569959633,84.08739381971296 337.9952569959633,83.40246233075956 338.6801884849167,82.71753084180622 338.6801884849167,81.34766786389943 338.6801884849167,80.66273637494604 338.6801884849167,79.9778048859927 " style="color: rgb(0, 0, 0);"/><polyline fill="none" stroke="#000000" stroke-width="3" stroke-dashoffset="" fill-rule="nonzero" marker-start="" marker-mid="" marker-end="" id="svg_17" points="325.66649019480246,71.75862701855212 325.66649019480246,71.07369552959872 327.0363531727092,70.38876404064533 329.09114763956933,69.70383255169193 332.51580508433625,69.70383255169193 334.5705995511964,69.70383255169193 335.2555310401498,69.70383255169193 335.9404625291032,69.70383255169193 336.62539401805657,69.70383255169193 " style="color: rgb(0, 0, 0);"/><polyline fill="none" stroke="#000000" stroke-width="3" stroke-dashoffset="" fill-rule="nonzero" marker-start="" marker-mid="" marker-end="" id="svg_18" points="372.51580403921366,90.25177722029339 372.51580403921366,89.56684573134001 372.51580403921366,86.82711977552648 373.2007355281671,82.71753084180622 375.25552999502725,76.55314744122578 375.94046148398064,69.70383255169193 377.9952559508407,58.05999723948444 377.9952559508407,51.210682349950645 377.9952559508407,45.0462989493702 378.68018743979417,40.25177852669654 379.36511892874756,36.82712108192962 379.36511892874756,33.402463637162725 378.68018743979417,31.34766917030257 378.68018743979417,29.9778061923958 377.9952559508407,27.923011725535673 377.9952559508407,25.868217258675514 376.6253929729341,23.813422791815384 375.94046148398064,21.758628324955225 375.94046148398064,19.703833858095095 375.94046148398064,20.388765347048462 377.9952559508407,22.44355981390862 380.7349819066543,24.49835428076875 383.47470786246777,27.923011725535673 385.52950232932795,33.402463637162725 388.9541597740948,44.36136746041683 391.6938857299084,51.89561383890401 394.43361168572187,58.74492872843783 397.17333764153545,66.27917510692507 397.17333764153545,71.75862701855212 398.5432006194423,74.49835297436564 398.5432006194423,77.92301041913251 399.2281321083956,79.9778048859927 399.91306359734904,81.34766786389943 399.91306359734904,82.71753084180622 399.91306359734904,85.45725679761975 399.91306359734904,86.82711977552648 399.91306359734904,88.88191424238661 400.5979950863024,90.25177722029339 400.5979950863024,90.93670870924682 399.91306359734904,88.88191424238661 399.91306359734904,88.19698275343329 " style="color: rgb(0, 0, 0);"/><polyline fill="none" stroke="#000000" stroke-width="3" stroke-dashoffset="" fill-rule="nonzero" marker-start="" marker-mid="" marker-end="" id="svg_19" points="375.25552999502725,59.429860217391216 376.6253929729341,59.429860217391216 377.9952559508407,60.799723195297965 382.10484488456115,62.169586173204756 384.8445708403746,62.854517662158145 386.89936530723475,62.854517662158145 388.9541597740948,62.854517662158145 391.008954240955,62.854517662158145 391.6938857299084,63.53944915111155 391.6938857299084,63.53944915111155 392.3788172188618,63.53944915111155 393.74868019676853,64.22438064006488 " style="color: rgb(0, 0, 0);"/><polyline fill="none" stroke="#000000" stroke-width="3" stroke-dashoffset="" fill-rule="nonzero" marker-start="" marker-mid="" marker-end="" id="svg_20" points="419.776076776997,64.22438064006488 419.776076776997,63.53944915111155 420.46100826595045,62.169586173204756 423.200734221764,56.69013426157769 425.25552868862405,48.47095639413712 427.99525464443764,39.566847037743145 430.05004911129777,32.03260065925596 430.05004911129777,27.923011725535673 430.05004911129777,25.183285769722147 430.05004911129777,23.813422791815384 427.99525464443764,21.073696836001858 426.6253916665309,19.703833858095095 424.5705971996707,16.96410790228157 424.5705971996707,16.279176413328173 423.88566571071743,15.594244924374806 421.83087124385725,14.909313435421408 420.46100826595045,14.909313435421408 419.09114528804366,14.909313435421408 419.09114528804366,14.909313435421408 417.7212823101369,14.909313435421408 414.9815563543234,19.703833858095095 413.6116933764166,24.49835428076875 410.87196742060314,32.03260065925596 410.18703593164975,39.566847037743145 408.13224146478956,47.101093416230356 406.7623784868828,55.32027128367093 406.0774469979294,66.27917510692507 407.44730997583616,75.18328446331898 410.18703593164975,82.71753084180622 410.87196742060314,86.14218828657309 414.29662486537,99.15588657668738 414.29662486537,99.15588657668738 416.3514193322302,101.8956125325009 416.3514193322302,101.8956125325009 415.6664878432768,99.15588657668738 415.6664878432768,97.78602359878059 415.6664878432768,96.41616062087385 414.9815563543234,93.67643466506033 414.29662486537,92.30657168715354 " style="color: rgb(0, 0, 0);"/><polyline fill="none" stroke="#000000" stroke-width="3" stroke-dashoffset="" fill-rule="nonzero" marker-start="" marker-mid="" marker-end="" id="svg_21" points="405.3925155089761,73.12848999645885 406.0774469979294,73.12848999645885 408.81717295374295,71.75862701855212 414.9815563543234,70.38876404064533 419.09114528804366,69.01890106273859 423.200734221764,67.6490380848318 423.88566571071743,67.6490380848318 " style="color: rgb(0, 0, 0);"/><polyline fill="none" stroke="#000000" stroke-width="3" stroke-dashoffset="" fill-rule="nonzero" marker-start="" marker-mid="" marker-end="" id="svg_22" points="439.63908995664514,56.69013426157769 433.4747065560647,55.32027128367093 430.05004911129777,55.32027128367093 426.6253916665309,56.0052027726243 423.200734221764,58.74492872843783 421.83087124385725,60.799723195297965 421.14593975490385,62.854517662158145 420.46100826595045,64.90931212901828 419.776076776997,66.27917510692507 419.776076776997,68.3339695737852 421.83087124385725,71.07369552959872 423.200734221764,72.44355850750546 424.5705971996707,73.81342148541225 429.3651176223445,74.49835297436564 433.4747065560647,74.49835297436564 436.21443251187816,74.49835297436564 438.95415846769174,73.12848999645885 441.6938844235052,70.38876404064533 443.7486788903654,69.01890106273859 443.7486788903654,66.9641065958784 443.7486788903654,64.90931212901828 443.7486788903654,63.53944915111155 443.7486788903654,61.48465468425135 443.7486788903654,60.11479170634462 443.06374740141206,59.429860217391216 443.06374740141206,58.74492872843783 442.37881591245866,58.74492872843783 441.6938844235052,58.74492872843783 " style="color: rgb(0, 0, 0);"/><polyline fill="none" stroke="#000000" stroke-width="3" stroke-dashoffset="" fill-rule="nonzero" marker-start="" marker-mid="" marker-end="" id="svg_23" points="449.22813080199245,56.0052027726243 449.22813080199245,58.05999723948444 449.22813080199245,60.799723195297965 449.22813080199245,62.169586173204756 449.22813080199245,63.53944915111155 449.22813080199245,66.9641065958784 449.22813080199245,68.3339695737852 449.91306229094585,67.6490380848318 451.2829252688527,65.59424361797167 453.33771973571277,63.53944915111155 455.3925142025729,60.799723195297965 457.447308669433,59.429860217391216 458.8171716473398,58.74492872843783 460.18703462524655,58.74492872843783 462.24182909210674,61.48465468425135 464.29662355896687,63.53944915111155 465.6664865368736,64.90931212901828 467.0363495147804,65.59424361797167 467.7212810037338,66.27917510692507 468.40621249268713,66.9641065958784 468.40621249268713,69.01890106273859 469.7760754705939,72.44355850750546 469.7760754705939,74.49835297436564 469.7760754705939,75.86821595227238 469.7760754705939,76.55314744122578 470.4610069595473,76.55314744122578 470.4610069595473,77.23807893017917 470.4610069595473,77.23807893017917 471.14593844850066,77.23807893017917 473.20073291536085,76.55314744122578 475.94045887117437,74.49835297436564 " style="color: rgb(0, 0, 0);"/><polyline fill="none" stroke="#000000" stroke-width="3" stroke-dashoffset="" fill-rule="nonzero" marker-start="" marker-mid="" marker-end="" id="svg_24" points="494.4336090729157,55.32027128367093 493.74867758396226,55.32027128367093 493.063746095009,56.0052027726243 492.3788146060555,56.69013426157769 489.639088650242,58.05999723948444 488.2692256723352,60.11479170634462 487.5842941833819,60.799723195297965 487.5842941833819,62.169586173204756 487.5842941833819,63.53944915111155 487.5842941833819,64.22438064006488 488.2692256723352,65.59424361797167 490.32402013919534,66.9641065958784 492.3788146060555,69.01890106273859 493.74867758396226,70.38876404064533 495.8034720508224,71.75862701855212 497.8582665176826,72.44355850750546 498.54319800663603,73.12848999645885 499.2281294955893,73.12848999645885 499.91306098454277,73.81342148541225 500.5979924734961,74.49835297436564 500.5979924734961,76.55314744122578 500.5979924734961,77.23807893017917 500.5979924734961,78.6079419080859 498.54319800663603,79.9778048859927 497.1733350287292,79.9778048859927 495.8034720508224,80.66273637494604 493.063746095009,80.66273637494604 490.32402013919534,80.66273637494604 487.5842941833819,80.66273637494604 486.2144312054751,79.9778048859927 485.52949971652174,79.9778048859927 484.8445682275683,79.9778048859927 484.8445682275683,79.9778048859927 484.8445682275683,78.6079419080859 485.52949971652174,77.92301041913251 " style="color: rgb(0, 0, 0);"/><polyline fill="none" stroke="#000000" stroke-width="3" stroke-dashoffset="" fill-rule="nonzero" marker-start="" marker-mid="" marker-end="" id="svg_25" points="517.7212796973306,62.169586173204756 517.7212796973306,61.48465468425135 516.3514167194239,61.48465468425135 514.9815537415171,61.48465468425135 512.2418277857035,62.169586173204756 509.50210182989014,64.22438064006488 507.4473073630299,66.27917510692507 506.07744438512316,68.3339695737852 504.70758140721637,69.70383255169193 504.0226499182631,71.75862701855212 504.0226499182631,73.81342148541225 504.0226499182631,77.23807893017917 504.0226499182631,79.2928733970393 505.3925128961698,79.9778048859927 506.7623758740765,79.9778048859927 509.50210182989014,79.9778048859927 511.5568962967502,79.2928733970393 517.0363482083773,75.86821595227238 517.7212796973306,74.49835297436564 522.5158001200043,71.75862701855212 523.2007316089577,69.70383255169193 523.8856630979111,68.3339695737852 523.8856630979111,66.27917510692507 523.8856630979111,65.59424361797167 523.2007316089577,63.53944915111155 520.4610056531442,60.799723195297965 520.4610056531442,60.11479170634462 520.4610056531442,60.11479170634462 " style="color: rgb(0, 0, 0);"/></g></svg>