<svg xmlns="http://www.w3.org/2000/svg" width="872.8200073242188" height="116.12000274658203" style=""><rect id="backgroundrect" width="100%" height="100%" x="0" y="0" fill="none" stroke="none"/><g class="currentLayer" style=""><title>Layer 1</title><polyline fill="none" stroke="#ffffff" stroke-width="3" stroke-dashoffset="" fill-rule="nonzero" marker-start="" marker-mid="" marker-end="" id="svg_7" points="373.33775526987864,-98.78931373083994 374.7076182477854,-97.41945075293317 " style="color: rgb(0, 0, 0);"/><polyline fill="none" stroke="#000000" stroke-width="5" stroke-dashoffset="" fill-rule="nonzero" marker-start="" marker-mid="" marker-end="" id="svg_18" points="25.940470628802622,21.073696836001858 25.940470628802622,22.44355981390862 25.940470628802622,24.49835428076875 26.625402117756003,27.238080236582277 27.310333606709385,28.607943214489037 27.995265095662766,30.662737681349196 28.680196584616148,32.71753214820933 29.36512807356953,34.77232661506949 30.05005956252291,36.82712108192962 30.734991051476293,39.566847037743145 31.419922540429674,42.30657299355667 32.78978551833644,46.41616192727696 32.78978551833644,49.84081937204388 32.78978551833644,51.210682349950645 32.78978551833644,52.58054532785741 32.78978551833644,53.95040830576417 32.78978551833644,55.32027128367093 32.78978551833644,56.69013426157769 33.47471700728982,58.74492872843783 33.47471700728982,61.48465468425135 33.47471700728982,63.53944915111155 34.1596484962432,64.90931212901828 34.84457998519658,67.6490380848318 35.52951147414996,71.75862701855212 36.214442963103345,75.18328446331898 36.899374452056726,78.6079419080859 37.58430594101011,82.03259935285283 38.26923742996349,83.40246233075956 38.26923742996349,85.45725679761975 38.95416891891687,88.19698275343329 40.324031896823634,92.99150317610692 41.008963385777015,95.73122913192044 41.008963385777015,97.78602359878059 41.6938948747304,101.8956125325009 43.06375785263716,103.95040699936105 43.06375785263716,105.32026997726777 43.06375785263716,106.69013295517458 43.06375785263716,107.37506444412796 43.06375785263716,107.37506444412796 43.06375785263716,108.0599959330813 43.06375785263716,108.74492742203468 43.06375785263716,109.42985891098809 43.06375785263716,110.11479039994148 43.06375785263716,110.11479039994148 43.06375785263716,110.79972188889482 43.74868934159054,110.79972188889482 45.1185523194973,107.37506444412796 50.598004231124364,94.36136615401367 52.6527986979845,88.19698275343329 56.07745614275141,80.66273637494604 58.817182098564935,71.75862701855212 62.926771032285224,60.11479170634462 64.29663401019198,55.32027128367093 65.66649698809874,52.58054532785741 65.66649698809874,50.52575086099725 67.0363599660055,47.78602490518372 67.7212914549589,45.0462989493702 68.40622294391227,42.99150448251007 68.40622294391227,40.25177852669654 70.46101741077243,36.14218959297625 71.1459488997258,33.402463637162725 71.83088038867919,30.662737681349196 71.83088038867919,29.9778061923958 71.83088038867919,28.607943214489037 71.83088038867919,27.923011725535673 72.51581187763256,27.238080236582277 73.20074336658595,25.868217258675514 73.88567485553932,25.183285769722147 73.88567485553932,23.813422791815384 " style="color: rgb(0, 0, 0);"/><polyline fill="none" stroke="#000000" stroke-width="5" stroke-dashoffset="" fill-rule="nonzero" marker-start="" marker-mid="" marker-end="" id="svg_19" points="88.95416761251373,53.95040830576417 88.95416761251373,55.32027128367093 88.95416761251373,55.32027128367093 87.58430463460698,57.37506575053109 87.58430463460698,60.11479170634462 87.58430463460698,62.854517662158145 86.89937314565358,64.90931212901828 86.21444165670022,67.6490380848318 85.52951016774682,69.01890106273859 84.84457867879345,71.75862701855212 84.84457867879345,73.12848999645885 84.84457867879345,76.55314744122578 84.84457867879345,80.66273637494604 84.84457867879345,82.71753084180622 84.84457867879345,85.45725679761975 84.84457867879345,87.51205126447988 84.84457867879345,88.19698275343329 84.84457867879345,88.88191424238661 84.84457867879345,90.25177722029339 84.84457867879345,91.62164019820014 84.84457867879345,92.30657168715354 84.84457867879345,92.99150317610692 84.84457867879345,93.67643466506033 84.84457867879345,94.36136615401367 84.84457867879345,95.04629764296706 84.84457867879345,95.73122913192044 84.84457867879345,96.41616062087385 84.84457867879345,96.41616062087385 84.84457867879345,97.10109210982719 84.84457867879345,97.78602359878059 84.84457867879345,99.15588657668738 84.84457867879345,99.84081806564072 84.84457867879345,101.8956125325009 84.84457867879345,104.63533848831443 84.84457867879345,104.63533848831443 84.84457867879345,105.32026997726777 " style="color: rgb(0, 0, 0);"/><polyline fill="none" stroke="#000000" stroke-width="5" stroke-dashoffset="" fill-rule="nonzero" marker-start="" marker-mid="" marker-end="" id="svg_20" points="90.32403059042049,36.14218959297625 90.32403059042049,36.14218959297625 90.32403059042049,35.457258104022856 90.32403059042049,36.14218959297625 90.32403059042049,36.14218959297625 90.32403059042049,36.82712108192962 90.32403059042049,37.512052570883014 90.32403059042049,38.19698405983638 90.32403059042049,38.88191554878978 90.32403059042049,38.88191554878978 90.32403059042049,39.566847037743145 90.32403059042049,40.25177852669654 90.32403059042049,40.93671001564991 " style="color: rgb(0, 0, 0);"/><polyline fill="none" stroke="#000000" stroke-width="5" stroke-dashoffset="" fill-rule="nonzero" marker-start="" marker-mid="" marker-end="" id="svg_21" points="114.98156419274224,23.12849130286199 114.98156419274224,24.49835428076875 114.98156419274224,26.55314874762891 114.29663270378886,32.71753214820933 113.61170121483548,38.19698405983638 112.24183823692871,47.101093416230356 111.5569067479753,51.210682349950645 111.5569067479753,54.63533979471754 111.5569067479753,58.05999723948444 111.5569067479753,64.22438064006488 110.87197525902195,69.01890106273859 110.87197525902195,72.44355850750546 110.87197525902195,77.23807893017917 110.87197525902195,79.9778048859927 110.87197525902195,82.03259935285283 110.87197525902195,82.71753084180622 110.87197525902195,84.08739381971296 110.87197525902195,85.45725679761975 110.87197525902195,87.51205126447988 110.87197525902195,88.88191424238661 110.87197525902195,90.93670870924682 110.87197525902195,92.30657168715354 110.87197525902195,92.99150317610692 110.87197525902195,93.67643466506033 110.87197525902195,97.10109210982719 110.87197525902195,99.15588657668738 110.87197525902195,99.84081806564072 110.87197525902195,101.21068104354752 110.87197525902195,101.8956125325009 110.87197525902195,102.58054402145424 110.87197525902195,103.26547551040764 110.87197525902195,104.63533848831443 110.87197525902195,106.00520146622115 110.87197525902195,106.69013295517458 110.87197525902195,107.37506444412796 110.87197525902195,107.37506444412796 110.87197525902195,108.0599959330813 " style="color: rgb(0, 0, 0);"/><polyline fill="none" stroke="#000000" stroke-width="5" stroke-dashoffset="" fill-rule="nonzero" marker-start="" marker-mid="" marker-end="" id="svg_22" points="114.29663270378886,58.05999723948444 114.29663270378886,57.37506575053109 115.66649568169562,57.37506575053109 117.72129014855577,57.37506575053109 119.77608461541591,57.37506575053109 121.14594759332267,57.37506575053109 123.20074206018282,57.37506575053109 123.20074206018282,57.37506575053109 124.57060503808958,57.37506575053109 125.25553652704298,57.37506575053109 125.94046801599634,57.37506575053109 " style="color: rgb(0, 0, 0);"/><polyline fill="none" stroke="#000000" stroke-width="5" stroke-dashoffset="" fill-rule="nonzero" marker-start="" marker-mid="" marker-end="" id="svg_23" points="150.59800161831808,60.11479170634462 149.22813864041132,60.11479170634462 147.85827566250455,60.11479170634462 147.1733441735512,60.11479170634462 145.80348119564442,60.11479170634462 142.3788237508775,60.799723195297965 140.32402928401737,62.169586173204756 138.9541663061106,63.53944915111155 136.89937183925045,64.90931212901828 135.5295088613437,66.27917510692507 132.78978290553016,71.07369552959872 131.4199199276234,74.49835297436564 131.4199199276234,77.23807893017917 130.05005694971663,80.66273637494604 129.36512546076327,82.71753084180622 129.36512546076327,84.08739381971296 129.36512546076327,86.82711977552648 129.36512546076327,90.93670870924682 129.36512546076327,92.99150317610692 130.05005694971663,95.04629764296706 131.4199199276234,97.78602359878059 132.78978290553016,99.84081806564072 134.84457737239032,101.8956125325009 137.58430332820384,102.58054402145424 141.00896077297074,103.26547551040764 145.11854970669103,103.26547551040764 147.85827566250455,103.26547551040764 147.85827566250455,103.26547551040764 149.22813864041132,101.8956125325009 151.96786459622484,99.15588657668738 153.3377275741316,96.41616062087385 155.39252204099176,93.67643466506033 157.4473165078519,90.93670870924682 158.1322479968053,88.88191424238661 158.81717948575866,87.51205126447988 158.81717948575866,85.45725679761975 158.81717948575866,84.08739381971296 158.81717948575866,82.03259935285283 158.81717948575866,81.34766786389943 158.81717948575866,80.66273637494604 158.81717948575866,79.9778048859927 158.81717948575866,77.23807893017917 158.81717948575866,75.86821595227238 157.4473165078519,74.49835297436564 156.76238501889853,71.75862701855212 156.07745352994513,71.07369552959872 156.07745352994513,69.70383255169193 155.39252204099176,69.01890106273859 154.70759055203837,68.3339695737852 154.022659063085,67.6490380848318 153.3377275741316,66.27917510692507 152.65279608517824,66.27917510692507 152.65279608517824,66.27917510692507 151.96786459622484,66.27917510692507 151.28293310727148,66.27917510692507 151.28293310727148,65.59424361797167 150.59800161831808,64.90931212901828 150.59800161831808,64.22438064006488 149.9130701293647,63.53944915111155 149.22813864041132,63.53944915111155 148.54320715145795,63.53944915111155 147.85827566250455,63.53944915111155 " style="color: rgb(0, 0, 0);"/><polyline fill="none" stroke="#000000" stroke-width="5" stroke-dashoffset="" fill-rule="nonzero" marker-start="" marker-mid="" marker-end="" id="svg_24" points="168.406220331106,71.75862701855212 168.406220331106,73.12848999645885 169.0911518200594,74.49835297436564 169.0911518200594,75.86821595227238 169.77608330901276,80.66273637494604 170.46101479796616,82.71753084180622 170.46101479796616,84.08739381971296 170.46101479796616,85.45725679761975 170.46101479796616,86.14218828657309 170.46101479796616,86.82711977552648 170.46101479796616,87.51205126447988 170.46101479796616,88.19698275343329 170.46101479796616,88.19698275343329 170.46101479796616,88.88191424238661 170.46101479796616,89.56684573134001 170.46101479796616,90.25177722029339 170.46101479796616,90.93670870924682 170.46101479796616,91.62164019820014 170.46101479796616,92.30657168715354 170.46101479796616,92.99150317610692 170.46101479796616,93.67643466506033 171.14594628691952,93.67643466506033 171.83087777587292,95.04629764296706 171.83087777587292,95.73122913192044 171.83087777587292,96.41616062087385 171.83087777587292,96.41616062087385 171.83087777587292,97.10109210982719 171.83087777587292,97.78602359878059 172.5158092648263,99.15588657668738 172.5158092648263,99.84081806564072 172.5158092648263,101.21068104354752 172.5158092648263,101.8956125325009 172.5158092648263,102.58054402145424 172.5158092648263,103.26547551040764 172.5158092648263,104.63533848831443 172.5158092648263,103.95040699936105 172.5158092648263,103.26547551040764 172.5158092648263,99.15588657668738 172.5158092648263,96.41616062087385 172.5158092648263,93.67643466506033 172.5158092648263,90.93670870924682 172.5158092648263,88.88191424238661 172.5158092648263,87.51205126447988 172.5158092648263,86.82711977552648 172.5158092648263,84.77232530866635 171.14594628691952,82.71753084180622 171.14594628691952,81.34766786389943 171.14594628691952,79.2928733970393 171.14594628691952,77.23807893017917 171.14594628691952,74.49835297436564 171.14594628691952,73.81342148541225 171.14594628691952,73.12848999645885 171.14594628691952,72.44355850750546 171.14594628691952,71.75862701855212 171.14594628691952,70.38876404064533 171.14594628691952,69.01890106273859 171.14594628691952,68.3339695737852 171.14594628691952,67.6490380848318 171.83087777587292,66.27917510692507 172.5158092648263,64.90931212901828 173.20074075377968,64.22438064006488 173.88567224273305,63.53944915111155 174.57060373168645,63.53944915111155 175.2555352206398,63.53944915111155 176.62539819854658,62.169586173204756 177.99526117645334,61.48465468425135 180.73498713226687,60.799723195297965 185.52950755494055,60.799723195297965 187.58430202180068,60.799723195297965 188.95416499970744,60.799723195297965 191.0089594665676,60.799723195297965 193.74868542238113,60.799723195297965 194.4336169113345,60.799723195297965 " style="color: rgb(0, 0, 0);"/><polyline fill="none" stroke="#000000" stroke-width="5" stroke-dashoffset="" fill-rule="nonzero" marker-start="" marker-mid="" marker-end="" id="svg_25" points="224.5706024252833,23.813422791815384 224.5706024252833,24.49835428076875 224.5706024252833,25.183285769722147 224.5706024252833,27.238080236582277 224.5706024252833,32.03260065925596 224.5706024252833,35.457258104022856 225.25553391423668,39.566847037743145 226.62539689214344,43.676435971463434 226.62539689214344,47.78602490518372 226.62539689214344,49.84081937204388 226.62539689214344,51.210682349950645 226.62539689214344,53.265476816810775 226.62539689214344,56.69013426157769 227.31032838109684,60.11479170634462 227.31032838109684,62.854517662158145 227.9952598700502,66.27917510692507 229.36512284795697,71.75862701855212 230.05005433691036,73.81342148541225 230.05005433691036,75.18328446331898 230.05005433691036,77.23807893017917 230.05005433691036,78.6079419080859 230.05005433691036,79.9778048859927 230.73498582586373,82.03259935285283 231.4199173148171,83.40246233075956 232.7897802927239,86.82711977552648 232.7897802927239,88.88191424238661 232.7897802927239,90.93670870924682 232.7897802927239,91.62164019820014 232.7897802927239,92.99150317610692 233.4747117816773,95.04629764296706 234.15964327063062,96.41616062087385 234.84457475958402,98.47095508773397 234.84457475958402,99.84081806564072 234.84457475958402,101.21068104354752 234.84457475958402,101.8956125325009 234.84457475958402,101.8956125325009 234.84457475958402,102.58054402145424 235.52950624853742,103.26547551040764 235.52950624853742,103.95040699936105 235.52950624853742,105.32026997726777 235.52950624853742,106.00520146622115 235.52950624853742,106.69013295517458 235.52950624853742,107.37506444412796 236.21443773749084,107.37506444412796 236.89936922644415,107.37506444412796 238.26923220435094,106.00520146622115 240.32402667121107,104.63533848831443 243.748684115978,97.78602359878059 247.85827304969825,89.56684573134001 252.65279347237197,81.34766786389943 254.7075879392321,76.55314744122578 256.76238240609223,71.75862701855212 257.4473138950456,68.3339695737852 259.50210836190575,62.854517662158145 260.18703985085915,58.74492872843783 260.87197133981255,55.32027128367093 261.5569028287659,51.89561383890401 262.9267658066727,49.155887883090486 262.9267658066727,47.101093416230356 263.6116972956261,46.41616192727696 264.2966287845794,44.36136746041683 264.2966287845794,42.99150448251007 264.2966287845794,41.6216415046033 264.2966287845794,40.93671001564991 264.2966287845794,40.25177852669654 264.2966287845794,39.566847037743145 264.2966287845794,38.88191554878978 " style="color: rgb(0, 0, 0);"/><polyline fill="none" stroke="#000000" stroke-width="5" stroke-dashoffset="" fill-rule="nonzero" marker-start="" marker-mid="" marker-end="" id="svg_26" points="278.68019005260044,73.12848999645885 277.3103270746937,73.12848999645885 276.6253955857403,73.12848999645885 276.6253955857403,73.12848999645885 274.5706011188802,73.81342148541225 272.51580665202,75.86821595227238 270.46101218515986,79.2928733970393 269.0911492072531,81.34766786389943 267.72128622934633,84.77232530866635 266.3514232514396,86.14218828657309 265.6664917624862,87.51205126447988 265.6664917624862,88.19698275343329 264.9815602735328,88.88191424238661 264.2966287845794,90.25177722029339 263.6116972956261,91.62164019820014 262.9267658066727,93.67643466506033 262.9267658066727,97.10109210982719 262.9267658066727,99.15588657668738 262.9267658066727,99.84081806564072 262.9267658066727,100.52574955459411 263.6116972956261,101.21068104354752 263.6116972956261,101.8956125325009 264.9815602735328,102.58054402145424 265.6664917624862,102.58054402145424 266.3514232514396,103.95040699936105 266.3514232514396,104.63533848831443 267.72128622934633,104.63533848831443 268.40621771829973,104.63533848831443 269.77608069620646,104.63533848831443 270.46101218515986,104.63533848831443 271.14594367411325,104.63533848831443 271.14594367411325,104.63533848831443 271.83087516306665,103.26547551040764 273.2007381409734,102.58054402145424 273.8856696299268,102.58054402145424 273.8856696299268,101.8956125325009 274.5706011188802,101.8956125325009 274.5706011188802,100.52574955459411 276.6253955857403,99.15588657668738 276.6253955857403,99.15588657668738 277.99525856364704,97.10109210982719 278.68019005260044,96.41616062087385 279.36512154155383,95.73122913192044 279.36512154155383,93.67643466506033 280.05005303050723,93.67643466506033 280.73498451946057,92.99150317610692 280.73498451946057,91.62164019820014 281.41991600841396,89.56684573134001 281.41991600841396,88.19698275343329 282.10484749736736,85.45725679761975 282.10484749736736,83.40246233075956 282.10484749736736,79.9778048859927 282.10484749736736,77.92301041913251 282.10484749736736,76.55314744122578 282.10484749736736,75.18328446331898 282.10484749736736,74.49835297436564 282.10484749736736,73.81342148541225 282.10484749736736,73.12848999645885 282.10484749736736,72.44355850750546 281.41991600841396,71.75862701855212 280.73498451946057,71.75862701855212 280.73498451946057,71.07369552959872 280.73498451946057,71.75862701855212 281.41991600841396,74.49835297436564 282.10484749736736,76.55314744122578 282.78977898632075,78.6079419080859 282.78977898632075,79.9778048859927 283.4747104752741,79.9778048859927 284.1596419642275,81.34766786389943 284.8445734531809,82.71753084180622 286.2144364310876,84.08739381971296 286.899367920041,84.77232530866635 287.5842994089944,85.45725679761975 287.5842994089944,87.51205126447988 288.95416238690115,88.19698275343329 288.95416238690115,89.56684573134001 290.32402536480794,90.93670870924682 291.00895685376133,91.62164019820014 292.37881983166807,92.99150317610692 293.06375132062146,93.67643466506033 293.06375132062146,94.36136615401367 293.06375132062146,95.04629764296706 293.74868280957486,95.73122913192044 293.74868280957486,96.41616062087385 295.803477276435,98.47095508773397 295.803477276435,99.15588657668738 295.803477276435,99.84081806564072 297.1733402543417,99.84081806564072 297.1733402543417,100.52574955459411 297.8582717432951,101.21068104354752 298.5432032322485,101.8956125325009 299.2281347212019,101.8956125325009 299.9130662101553,101.8956125325009 301.28292918806204,101.8956125325009 303.3377236549222,101.8956125325009 304.02265514387557,101.8956125325009 " style="color: rgb(0, 0, 0);"/><polyline fill="none" stroke="#000000" stroke-width="5" stroke-dashoffset="" fill-rule="nonzero" marker-start="" marker-mid="" marker-end="" id="svg_1" points="305.8034770151544,63.53944915111155 307.8582714820145,63.53944915111155 309.2281344599213,63.53944915111155 310.59799743782804,63.53944915111155 311.96786041573483,64.22438064006488 313.33772339364157,65.59424361797167 314.02265488259496,66.27917510692507 315.3925178605017,66.27917510692507 315.3925178605017,67.6490380848318 316.0774493494551,69.01890106273859 316.7623808384085,71.75862701855212 317.4473123273619,73.12848999645885 318.1322438163152,74.49835297436564 318.8171753052686,77.23807893017917 318.8171753052686,79.9778048859927 318.8171753052686,82.71753084180622 318.1322438163152,86.14218828657309 317.4473123273619,88.19698275343329 317.4473123273619,89.56684573134001 316.0774493494551,90.93670870924682 316.0774493494551,92.30657168715354 316.0774493494551,93.67643466506033 316.0774493494551,94.36136615401367 316.0774493494551,95.04629764296706 315.3925178605017,95.73122913192044 314.70758637154836,96.41616062087385 314.70758637154836,97.78602359878059 314.02265488259496,98.47095508773397 314.02265488259496,99.15588657668738 314.02265488259496,99.84081806564072 314.02265488259496,100.52574955459411 314.02265488259496,101.21068104354752 316.0774493494551,101.8956125325009 318.8171753052686,101.8956125325009 322.24183275003554,101.8956125325009 325.66649019480246,101.8956125325009 328.406216150616,101.8956125325009 329.7760791285227,101.8956125325009 329.7760791285227,101.8956125325009 331.1459421064295,101.8956125325009 333.20073657328965,101.8956125325009 335.2555310401498,101.8956125325009 335.9404625291032,101.8956125325009 336.62539401805657,101.8956125325009 337.3103255070099,101.8956125325009 337.9952569959633,101.8956125325009 " style="color: rgb(0, 0, 0);"/><polyline fill="none" stroke="#000000" stroke-width="5" stroke-dashoffset="" fill-rule="nonzero" marker-start="" marker-mid="" marker-end="" id="svg_2" points="312.6527919046882,79.9778048859927 313.33772339364157,79.2928733970393 314.02265488259496,79.2928733970393 316.0774493494551,79.2928733970393 317.4473123273619,78.6079419080859 320.87196977212875,77.92301041913251 322.24183275003554,77.92301041913251 323.6116957279423,77.92301041913251 324.2966272168957,77.92301041913251 324.98155870584907,77.92301041913251 326.3514216837558,77.92301041913251 327.0363531727092,77.92301041913251 329.09114763956933,77.92301041913251 329.7760791285227,77.92301041913251 329.7760791285227,77.92301041913251 330.4610106174761,77.92301041913251 " style="color: rgb(0, 0, 0);"/><polyline fill="none" stroke="#000000" stroke-width="5" stroke-dashoffset="" fill-rule="nonzero" marker-start="" marker-mid="" marker-end="" id="svg_3" points="368.54320140328406,100.52574955459411 368.54320140328406,99.84081806564072 368.54320140328406,99.15588657668738 368.54320140328406,95.04629764296706 369.22813289223745,88.19698275343329 369.91306438119085,82.71753084180622 371.2829273590976,77.23807893017917 371.9678588480509,75.18328446331898 371.9678588480509,73.81342148541225 371.9678588480509,71.07369552959872 372.6527903370044,69.01890106273859 373.3377218259578,66.27917510692507 374.0226533149111,62.169586173204756 376.07744778177135,56.69013426157769 377.447310759678,51.210682349950645 377.447310759678,47.78602490518372 378.1322422486314,44.36136746041683 379.50210522653816,41.6216415046033 380.18703671549156,40.93671001564991 380.18703671549156,40.25177852669654 380.87196820444495,38.19698405983638 381.5568996933984,36.82712108192962 382.2418311823517,34.77232661506949 382.92676267130514,32.71753214820933 382.92676267130514,29.9778061923958 383.6116941602585,28.607943214489037 383.6116941602585,27.923011725535673 383.6116941602585,27.923011725535673 383.6116941602585,27.238080236582277 383.6116941602585,26.55314874762891 383.6116941602585,25.868217258675514 384.2966256492119,25.868217258675514 384.2966256492119,26.55314874762891 384.2966256492119,27.238080236582277 385.6664886271186,28.607943214489037 385.6664886271186,30.662737681349196 386.351420116072,32.71753214820933 387.0363516050254,36.14218959297625 388.4062145829322,39.566847037743145 388.4062145829322,43.676435971463434 391.14594053874566,53.265476816810775 391.83087202769906,58.05999723948444 392.51580351665245,60.799723195297965 392.51580351665245,62.854517662158145 392.51580351665245,64.22438064006488 392.51580351665245,66.27917510692507 393.88566649455925,67.6490380848318 393.88566649455925,71.07369552959872 395.255529472466,75.86821595227238 395.9404609614193,78.6079419080859 395.9404609614193,82.03259935285283 395.9404609614193,84.08739381971296 395.9404609614193,85.45725679761975 395.9404609614193,86.82711977552648 395.9404609614193,88.19698275343329 396.6253924503727,90.25177722029339 396.6253924503727,90.93670870924682 396.6253924503727,91.62164019820014 396.6253924503727,92.30657168715354 397.31032393932605,93.67643466506033 397.9952554282795,94.36136615401367 397.9952554282795,95.73122913192044 399.3651184061863,96.41616062087385 399.3651184061863,97.10109210982719 " style="color: rgb(0, 0, 0);"/><polyline fill="none" stroke="#000000" stroke-width="5" stroke-dashoffset="" fill-rule="nonzero" marker-start="" marker-mid="" marker-end="" id="svg_4" points="374.0226533149111,69.01890106273859 375.3925162928179,68.3339695737852 377.447310759678,68.3339695737852 378.8171737375848,67.6490380848318 381.5568996933984,67.6490380848318 382.92676267130514,67.6490380848318 385.6664886271186,67.6490380848318 387.0363516050254,67.6490380848318 388.4062145829322,67.6490380848318 389.09114607188553,67.6490380848318 389.7760775608389,67.6490380848318 390.46100904979227,67.6490380848318 391.14594053874566,67.6490380848318 391.14594053874566,67.6490380848318 392.51580351665245,67.6490380848318 393.20073500560585,67.6490380848318 393.88566649455925,67.6490380848318 " style="color: rgb(0, 0, 0);"/><polyline fill="none" stroke="#000000" stroke-width="5" stroke-dashoffset="" fill-rule="nonzero" marker-start="" marker-mid="" marker-end="" id="svg_5" points="428.81717243118175,64.90931212901828 429.502103920135,64.90931212901828 429.502103920135,63.53944915111155 430.18703540908837,59.429860217391216 431.5568983869952,55.32027128367093 431.5568983869952,52.58054532785741 431.5568983869952,51.210682349950645 431.5568983869952,48.47095639413712 431.5568983869952,47.101093416230356 431.5568983869952,42.99150448251007 430.8719668980418,39.566847037743145 430.18703540908837,34.77232661506949 429.502103920135,29.9778061923958 429.502103920135,27.923011725535673 428.81717243118175,25.868217258675514 426.7623779643215,23.813422791815384 425.39251498641477,22.44355981390862 424.022652008508,21.073696836001858 421.28292605269445,20.388765347048462 419.9130630747877,19.703833858095095 417.1733371189742,19.703833858095095 415.80347414106745,19.703833858095095 414.43361116316066,19.703833858095095 413.06374818525387,19.703833858095095 411.00895371839374,22.44355981390862 408.9541592515336,27.238080236582277 406.89936478467354,32.71753214820933 405.5295018067667,37.512052570883014 404.84457031781335,39.566847037743145 404.84457031781335,42.30657299355667 404.84457031781335,45.0462989493702 404.84457031781335,52.58054532785741 405.5295018067667,59.429860217391216 405.5295018067667,65.59424361797167 405.5295018067667,70.38876404064533 405.5295018067667,73.12848999645885 405.5295018067667,75.18328446331898 405.5295018067667,77.92301041913251 406.2144332957201,81.34766786389943 407.5842962736268,88.19698275343329 408.26922776258016,91.62164019820014 408.9541592515336,95.04629764296706 409.639090740487,98.47095508773397 410.3240222294404,99.84081806564072 410.3240222294404,101.21068104354752 410.3240222294404,101.8956125325009 410.3240222294404,102.58054402145424 411.00895371839374,102.58054402145424 411.00895371839374,103.26547551040764 411.00895371839374,104.63533848831443 411.00895371839374,104.63533848831443 " style="color: rgb(0, 0, 0);"/><polyline fill="none" stroke="#000000" stroke-width="5" stroke-dashoffset="" fill-rule="nonzero" marker-start="" marker-mid="" marker-end="" id="svg_6" points="404.84457031781335,70.38876404064533 404.84457031781335,69.70383255169193 406.2144332957201,69.70383255169193 407.5842962736268,69.70383255169193 410.3240222294404,69.70383255169193 411.00895371839374,69.70383255169193 413.06374818525387,69.70383255169193 413.06374818525387,69.70383255169193 413.7486796742072,69.70383255169193 414.43361116316066,69.70383255169193 415.11854265211406,69.70383255169193 415.80347414106745,69.70383255169193 " style="color: rgb(0, 0, 0);"/><polyline fill="none" stroke="#000000" stroke-width="5" stroke-dashoffset="" fill-rule="nonzero" marker-start="" marker-mid="" marker-end="" id="svg_8" points="446.62539114396964,63.53944915111155 445.9404596550162,63.53944915111155 444.57059667710945,63.53944915111155 443.20073369920266,63.53944915111155 441.8308707212959,65.59424361797167 439.77607625443585,66.27917510692507 437.7212817875756,68.3339695737852 436.35141880966887,69.01890106273859 435.6664873207154,71.07369552959872 434.2966243428088,71.75862701855212 432.92676136490195,73.12848999645885 432.92676136490195,74.49835297436564 432.24182987594855,75.18328446331898 431.5568983869952,75.86821595227238 431.5568983869952,77.23807893017917 431.5568983869952,79.9778048859927 432.24182987594855,82.71753084180622 432.92676136490195,84.77232530866635 432.92676136490195,85.45725679761975 434.2966243428088,86.82711977552648 434.9815558317621,88.19698275343329 437.7212817875756,89.56684573134001 440.46100774338913,90.25177722029339 441.8308707212959,90.25177722029339 443.20073369920266,90.25177722029339 445.9404596550162,89.56684573134001 449.3651170997831,88.19698275343329 451.41991156664324,87.51205126447988 451.41991156664324,87.51205126447988 453.4747060335034,85.45725679761975 454.15963752245676,84.08739381971296 456.21443198931695,82.71753084180622 456.8993634782703,81.34766786389943 458.2692264561771,78.6079419080859 458.95415794513036,77.92301041913251 458.95415794513036,77.23807893017917 458.95415794513036,75.18328446331898 458.95415794513036,73.81342148541225 458.95415794513036,73.12848999645885 458.2692264561771,72.44355850750546 457.58429496722374,71.75862701855212 456.8993634782703,71.07369552959872 456.8993634782703,69.70383255169193 456.8993634782703,69.01890106273859 456.21443198931695,69.01890106273859 454.15963752245676,68.3339695737852 454.15963752245676,68.3339695737852 453.4747060335034,68.3339695737852 452.78977454455,68.3339695737852 452.1048430555967,68.3339695737852 452.1048430555967,67.6490380848318 451.41991156664324,67.6490380848318 451.41991156664324,66.9641065958784 451.41991156664324,66.27917510692507 450.7349800776899,66.27917510692507 450.0500485887365,65.59424361797167 449.3651170997831,64.90931212901828 448.6801856108297,64.90931212901828 448.6801856108297,64.90931212901828 447.99525412187637,64.90931212901828 447.310322632923,64.90931212901828 446.62539114396964,64.22438064006488 445.25552816606285,63.53944915111155 444.57059667710945,62.854517662158145 443.88566518815605,62.854517662158145 443.20073369920266,62.854517662158145 " style="color: rgb(0, 0, 0);"/><polyline fill="none" stroke="#000000" stroke-width="5" stroke-dashoffset="" fill-rule="nonzero" marker-start="" marker-mid="" marker-end="" id="svg_9" points="465.118541345711,60.799723195297965 465.80347283466426,62.854517662158145 465.80347283466426,63.53944915111155 465.80347283466426,67.6490380848318 466.4884043236176,70.38876404064533 466.4884043236176,71.75862701855212 466.4884043236176,73.12848999645885 466.4884043236176,73.81342148541225 466.4884043236176,74.49835297436564 466.4884043236176,75.86821595227238 466.4884043236176,76.55314744122578 466.4884043236176,77.23807893017917 466.4884043236176,77.23807893017917 466.4884043236176,78.6079419080859 467.17333581257105,78.6079419080859 467.17333581257105,79.9778048859927 467.17333581257105,79.9778048859927 467.17333581257105,80.66273637494604 467.17333581257105,81.34766786389943 467.17333581257105,82.03259935285283 467.8582673015244,82.03259935285283 467.8582673015244,82.71753084180622 468.54319879047785,84.77232530866635 468.54319879047785,86.14218828657309 468.54319879047785,86.82711977552648 468.54319879047785,87.51205126447988 469.2281302794312,86.14218828657309 469.91306176838447,84.77232530866635 469.91306176838447,82.71753084180622 469.91306176838447,82.03259935285283 470.59799325733803,79.9778048859927 470.59799325733803,79.9778048859927 471.96785623524477,78.6079419080859 472.6527877241981,77.23807893017917 473.33771921315144,77.23807893017917 473.33771921315144,76.55314744122578 474.0226507021049,75.18328446331898 474.70758219105824,74.49835297436564 476.0774451689651,74.49835297436564 476.76237665791837,74.49835297436564 478.8171711247785,74.49835297436564 478.8171711247785,74.49835297436564 479.5021026137319,74.49835297436564 480.1870341026853,74.49835297436564 481.55689708059214,74.49835297436564 481.55689708059214,74.49835297436564 482.92676005849887,74.49835297436564 483.6116915474522,74.49835297436564 484.29662303640555,74.49835297436564 484.29662303640555,75.86821595227238 485.66648601431234,76.55314744122578 487.0363489922192,77.23807893017917 487.72128048117247,79.9778048859927 488.4062119701259,81.34766786389943 489.77607494803254,83.40246233075956 489.77607494803254,84.77232530866635 490.461006436986,86.14218828657309 490.461006436986,86.82711977552648 490.461006436986,87.51205126447988 490.461006436986,88.19698275343329 491.1459379259394,88.19698275343329 491.8308694148928,88.88191424238661 491.8308694148928,89.56684573134001 492.51580090384624,89.56684573134001 494.5705953707063,90.93670870924682 495.2555268596596,90.93670870924682 495.94045834861305,90.93670870924682 496.62538983756644,90.93670870924682 " style="color: rgb(0, 0, 0);"/><polyline fill="none" stroke="#000000" stroke-width="5" stroke-dashoffset="" fill-rule="nonzero" marker-start="" marker-mid="" marker-end="" id="svg_10" points="526.0774438625618,63.53944915111155 525.3925123736085,63.53944915111155 525.3925123736085,62.854517662158145 525.3925123736085,62.169586173204756 524.0226493957017,61.48465468425135 523.3377179067484,60.799723195297965 522.6527864177949,60.799723195297965 521.2829234398882,60.799723195297965 519.9130604619814,60.799723195297965 517.8582659951213,60.799723195297965 517.1733345061679,60.799723195297965 516.4884030172145,60.799723195297965 515.1185400393077,60.799723195297965 514.4336085503544,60.799723195297965 514.4336085503544,61.48465468425135 513.7486770614009,62.169586173204756 513.0637455724476,63.53944915111155 511.69388259454075,64.90931212901828 511.00895110558747,66.27917510692507 508.95415663872734,69.01890106273859 508.95415663872734,69.70383255169193 508.26922514977394,70.38876404064533 507.58429366082055,70.38876404064533 507.58429366082055,71.75862701855212 506.89936217186715,71.75862701855212 506.89936217186715,73.12848999645885 506.89936217186715,74.49835297436564 506.89936217186715,75.18328446331898 506.89936217186715,75.86821595227238 506.89936217186715,77.23807893017917 507.58429366082055,77.23807893017917 508.95415663872734,77.23807893017917 509.6390881276807,77.92301041913251 511.69388259454075,78.6079419080859 513.0637455724476,78.6079419080859 514.4336085503544,78.6079419080859 515.1185400393077,78.6079419080859 516.4884030172145,78.6079419080859 517.1733345061679,78.6079419080859 517.1733345061679,79.2928733970393 517.1733345061679,79.9778048859927 518.5431974840747,79.9778048859927 519.228128973028,79.9778048859927 519.228128973028,80.66273637494604 519.228128973028,81.34766786389943 519.228128973028,82.71753084180622 519.228128973028,83.40246233075956 519.228128973028,84.08739381971296 519.228128973028,84.77232530866635 519.228128973028,85.45725679761975 519.228128973028,85.45725679761975 519.228128973028,86.14218828657309 519.228128973028,87.51205126447988 517.8582659951213,88.88191424238661 517.1733345061679,89.56684573134001 517.1733345061679,90.93670870924682 517.1733345061679,90.93670870924682 516.4884030172145,90.93670870924682 515.8034715282612,90.93670870924682 514.4336085503544,90.93670870924682 513.7486770614009,90.93670870924682 511.69388259454075,90.93670870924682 511.00895110558747,90.93670870924682 510.32401961663413,90.93670870924682 508.95415663872734,90.25177722029339 508.26922514977394,89.56684573134001 504.8445677050071,88.19698275343329 503.4747047271003,88.19698275343329 503.4747047271003,87.51205126447988 502.7897732381469,87.51205126447988 502.1048417491935,87.51205126447988 " style="color: rgb(0, 0, 0);"/><polyline fill="none" stroke="#000000" stroke-width="5" stroke-dashoffset="" fill-rule="nonzero" marker-start="" marker-mid="" marker-end="" id="svg_11" points="548.6801829980235,66.27917510692507 548.6801829980235,64.90931212901828 548.6801829980235,64.22438064006488 548.6801829980235,63.53944915111155 548.6801829980235,63.53944915111155 548.6801829980235,62.854517662158145 547.99525150907,62.854517662158145 547.3103200201167,62.854517662158145 545.2555255532566,62.854517662158145 543.8856625753498,64.22438064006488 542.515799597443,64.22438064006488 541.8308681084897,64.90931212901828 541.1459366195362,66.27917510692507 539.0911421526761,68.3339695737852 538.4062106637227,69.70383255169193 537.7212791747694,71.75862701855212 536.3514161968626,71.75862701855212 536.3514161968626,73.12848999645885 534.9815532189558,73.81342148541225 534.9815532189558,74.49835297436564 533.611690241049,77.23807893017917 533.611690241049,79.2928733970393 532.2418272631423,80.66273637494604 532.2418272631423,82.03259935285283 531.5568957741889,84.08739381971296 531.5568957741889,86.82711977552648 531.5568957741889,88.88191424238661 531.5568957741889,90.93670870924682 531.5568957741889,90.93670870924682 531.5568957741889,92.30657168715354 531.5568957741889,92.99150317610692 531.5568957741889,93.67643466506033 531.5568957741889,94.36136615401367 532.9267587520957,95.04629764296706 534.2966217300025,95.73122913192044 536.3514161968626,95.73122913192044 539.0911421526761,95.73122913192044 541.8308681084897,95.04629764296706 544.5705940643031,93.67643466506033 547.99525150907,92.30657168715354 550.0500459759302,90.93670870924682 551.419908953837,90.25177722029339 552.1048404427903,89.56684573134001 552.7897719317438,88.19698275343329 553.4747034206971,88.19698275343329 554.1596349096505,86.82711977552648 554.8445663986039,86.82711977552648 555.5294978875572,86.14218828657309 556.2144293765107,84.77232530866635 556.2144293765107,84.08739381971296 556.899360865464,84.08739381971296 556.899360865464,82.71753084180622 556.899360865464,82.71753084180622 558.2692238433708,81.34766786389943 558.2692238433708,79.9778048859927 558.2692238433708,79.2928733970393 558.2692238433708,77.23807893017917 558.2692238433708,76.55314744122578 558.2692238433708,75.86821595227238 558.2692238433708,74.49835297436564 558.2692238433708,73.81342148541225 558.2692238433708,73.12848999645885 558.2692238433708,72.44355850750546 558.2692238433708,71.75862701855212 558.2692238433708,71.07369552959872 557.5842923544174,71.07369552959872 556.899360865464,70.38876404064533 556.899360865464,69.70383255169193 556.2144293765107,69.01890106273859 555.5294978875572,69.01890106273859 555.5294978875572,68.3339695737852 555.5294978875572,67.6490380848318 554.1596349096505,66.9641065958784 554.1596349096505,66.27917510692507 553.4747034206971,65.59424361797167 552.7897719317438,64.90931212901828 552.7897719317438,63.53944915111155 552.1048404427903,63.53944915111155 552.1048404427903,62.854517662158145 551.419908953837,62.854517662158145 551.419908953837,62.169586173204756 550.0500459759302,60.799723195297965 550.0500459759302,60.799723195297965 549.3651144869768,60.799723195297965 548.6801829980235,60.799723195297965 546.6253885311633,60.799723195297965 544.5705940643031,60.799723195297965 542.515799597443,60.799723195297965 " style="color: rgb(0, 0, 0);"/></g></svg>